<?xml version="1.0" encoding="utf-8" standalone="yes"?>
<!DOCTYPE svg PUBLIC "-//W3C//DTD SVG 1.1//EN" "http://www.w3.org/Graphics/SVG/1.1/DTD/svg11.dtd">
<svg width="828" height="601" viewBox="0 0 828 601" style="fill:none;stroke:none;fill-rule:evenodd;clip-rule:evenodd;stroke-linecap:round;stroke-linejoin:round;stroke-miterlimit:1.5;" version="1.1" xmlns="http://www.w3.org/2000/svg" xmlns:xlink="http://www.w3.org/1999/xlink"><style class="text-font-style fontImports" data-font-family="Roboto">@import url(https://fonts.googleapis.com/css2?family=Roboto:wght@400;700&amp;amp;display=block);</style><g id="items" style="isolation: isolate"><g id="blend" style="mix-blend-mode: normal"><g id="g-root-sy_3_cu_Vector_qteyvhm79cc-fill" data-item-order="-299510" transform="translate(410, 410)"><g id="sy_3_cu_Vector_qteyvhm79cc-fill-merged" stroke="none" fill="#4f91fc"><g><path d="M10 118L70 142 H334L394 118L334 10 H70L10 118"></path></g></g></g><g id="g-root-sy_3_Subtract_mdlgr1m7a4l-fill" data-item-order="-299505" transform="translate(21, 446)"></g><g id="g-root-sy_3_Subtract-start_mdlgr1m7a4m-fill" data-item-order="-299503" transform="translate(14, 443)"></g><g id="g-root-sy_2_cu_Vector_mdlgr1m7a4n-fill" data-item-order="-299500" transform="translate(482, 290)"><g id="sy_2_cu_Vector_mdlgr1m7a4n-fill-merged" stroke="none" fill="#43dd93"><g><path d="M10 106L58 130 H202L250 106L202 10 H58L10 106"></path></g></g></g><g id="g-root-sy_2_Subtract_hxrymlm7aww-fill" data-item-order="-299495" transform="translate(20, 326)"></g><g id="g-root-sy_2_Subtract-start_hxrymlm7awx-fill" data-item-order="-299493" transform="translate(14, 323)"></g><g id="g-root-sy_1_cu_Vector_hxrymlm7awy-fill" data-item-order="-299490" transform="translate(542, 158)"><g id="sy_1_cu_Vector_hxrymlm7awy-fill-merged" stroke="none" fill="#1ac3fb"><g><path d="M10 118L46 142 H94L130 118L70 10L10 118"></path></g></g></g><g id="g-root-sy_1_Subtract_924ydpm7bpn-fill" data-item-order="-299485" transform="translate(20, 206)"></g><g id="g-root-sy_1_Subtract-start_924ydpm7bpo-fill" data-item-order="-299483" transform="translate(14, 203)"></g><g id="g-root-tx_systemar_924ydpm7bpp-fill" data-item-order="0" transform="translate(212, 38)"><g id="tx_systemar_924ydpm7bpp-fill-merged" stroke="none" fill="#f4f4f4"><g><text style="font: bold 25px Roboto, sans-serif; white-space: pre;" font-weight="bold" font-size="25px" font-family="Roboto, sans-serif"><tspan x="17.71" y="42.5" dominant-baseline="ideographic">System Architecture Hierarchy</tspan></text></g></g></g><g id="g-root-tx_glass_1qclgy5m7aq3-fill" data-item-order="0" transform="translate(14, 170)"><g id="tx_glass_1qclgy5m7aq3-fill-merged" stroke="none" fill="#1ac3fb"><g><text style="font: bold 20px Roboto, sans-serif; white-space: pre;" font-weight="bold" font-size="20px" font-family="Roboto, sans-serif"><tspan x="12" y="33.5" dominant-baseline="ideographic">Glass</tspan></text></g></g></g><g id="g-root-tx_visualiz_1qclgy5m7aq2-fill" data-item-order="0" transform="translate(14, 218)"><g id="tx_visualiz_1qclgy5m7aq2-fill-merged" stroke="none" fill="#f4f4f4"><g><text style="font: 15px Roboto, sans-serif; white-space: pre;" font-size="15px" font-family="Roboto, sans-serif"><tspan x="12" y="30.5" dominant-baseline="ideographic">Visualization and security features</tspan></text></g></g></g><g id="g-root-ic_lock_1upaln1mea6n-fill" data-item-order="0" transform="translate(587, 211)"></g><g id="g-root-tx_studio_74f7xm7a4h-fill" data-item-order="0" transform="translate(14, 290)"><g id="tx_studio_74f7xm7a4h-fill-merged" stroke="none" fill="#43dd93"><g><text style="font: bold 20px Roboto, sans-serif; white-space: pre;" font-weight="bold" font-size="20px" font-family="Roboto, sans-serif"><tspan x="12" y="33.5" dominant-baseline="ideographic">Studio</tspan></text></g></g></g><g id="g-root-tx_configur_74f7xm7a4g-fill" data-item-order="0" transform="translate(14, 338)"><g id="tx_configur_74f7xm7a4g-fill-merged" stroke="none" fill="#f4f4f4"><g><text style="font: 15px Roboto, sans-serif; white-space: pre;" font-size="15px" font-family="Roboto, sans-serif"><tspan x="12" y="27.5" dominant-baseline="ideographic">Configuration and user management </tspan><tspan x="12" y="45.5" dominant-baseline="ideographic">tools</tspan></text></g></g></g><g id="g-root-ic_stud_4g2pe5mebk4-fill" data-item-order="0" transform="translate(587, 319)"></g><g id="g-root-tx_core_1usez2lm79xr-fill" data-item-order="0" transform="translate(14, 410)"><g id="tx_core_1usez2lm79xr-fill-merged" stroke="none" fill="#4f91fc"><g><text style="font: bold 20px Roboto, sans-serif; white-space: pre;" font-weight="bold" font-size="20px" font-family="Roboto, sans-serif"><tspan x="12" y="33.5" dominant-baseline="ideographic">Core</tspan></text></g></g></g><g id="g-root-ic_chec_1lwrytpm7bic-fill" data-item-order="0" transform="translate(587, 439)"></g><g id="g-root-tx_coreengi_4mxxcdm79c6-fill" data-item-order="0" transform="translate(14, 458)"><g id="tx_coreengi_4mxxcdm79c6-fill-merged" stroke="none" fill="#f4f4f4"><g><text style="font: 15px Roboto, sans-serif; white-space: pre;" font-size="15px" font-family="Roboto, sans-serif"><tspan x="12" y="27.5" dominant-baseline="ideographic">Core engine modules for system </tspan><tspan x="12" y="45.5" dominant-baseline="ideographic">operation</tspan></text></g></g></g><g id="g-root-sy_3_cu_Vector_qteyvhm79cc-stroke" data-item-order="-299510" transform="translate(410, 410)"><g id="sy_3_cu_Vector_qteyvhm79cc-stroke" fill="none" stroke-linecap="round" stroke-linejoin="round" stroke-miterlimit="4" stroke="#2c2c2c" stroke-width="2"><g><path d="M 70 10L 10 118L 394 118L 334 10L 70 10ZM 70 142L 10 118L 394 118L 334 142L 70 142Z"></path></g></g></g><g id="g-root-sy_3_Subtract_mdlgr1m7a4l-stroke" data-item-order="-299505" transform="translate(21, 446)"><g id="sy_3_Subtract_mdlgr1m7a4l-stroke" fill="none" stroke-linecap="round" stroke-linejoin="round" stroke-miterlimit="4" stroke="#4f91fc" stroke-width="2"><g><path d="M 10 10.0016L 438.5 10"></path></g></g></g><g id="g-root-sy_3_Subtract-start_mdlgr1m7a4m-stroke" data-item-order="-299503" transform="translate(14, 443)"><g id="sy_3_Subtract-start_mdlgr1m7a4m-stroke" fill="none" stroke-linecap="round" stroke-linejoin="round" stroke-miterlimit="4" stroke="#f4f4f4" stroke-width="2"><g><path d="M 13 16C 11.3443 16 10 14.6557 10 13C 10 11.3443 11.3443 10 13 10C 14.6557 10 16 11.3443 16 13C 16 14.6557 14.6557 16 13 16Z"></path></g></g></g><g id="g-root-sy_2_cu_Vector_mdlgr1m7a4n-stroke" data-item-order="-299500" transform="translate(482, 290)"><g id="sy_2_cu_Vector_mdlgr1m7a4n-stroke" fill="none" stroke-linecap="round" stroke-linejoin="round" stroke-miterlimit="4" stroke="#2c2c2c" stroke-width="2"><g><path d="M 58 10L 10 106L 250 106L 202 10L 58 10ZM 58 130L 10 106L 250 106L 202 130L 58 130Z"></path></g></g></g><g id="g-root-sy_2_Subtract_hxrymlm7aww-stroke" data-item-order="-299495" transform="translate(20, 326)"><g id="sy_2_Subtract_hxrymlm7aww-stroke" fill="none" stroke-linecap="round" stroke-linejoin="round" stroke-miterlimit="4" stroke="#43dd93" stroke-width="2"><g><path d="M 10 10L 501.5 10"></path></g></g></g><g id="g-root-sy_2_Subtract-start_hxrymlm7awx-stroke" data-item-order="-299493" transform="translate(14, 323)"><g id="sy_2_Subtract-start_hxrymlm7awx-stroke" fill="none" stroke-linecap="round" stroke-linejoin="round" stroke-miterlimit="4" stroke="#f4f4f4" stroke-width="2"><g><path d="M 13 16C 11.3443 16 10 14.6557 10 13C 10 11.3443 11.3443 10 13 10C 14.6557 10 16 11.3443 16 13C 16 14.6557 14.6557 16 13 16Z"></path></g></g></g><g id="g-root-sy_1_cu_Vector_hxrymlm7awy-stroke" data-item-order="-299490" transform="translate(542, 158)"><g id="sy_1_cu_Vector_hxrymlm7awy-stroke" fill="none" stroke-linecap="round" stroke-linejoin="round" stroke-miterlimit="4" stroke="#2c2c2c" stroke-width="2"><g><path d="M 130 118L 70 10L 10 118L 130 118ZM 10 118L 130 118L 94 142L 46 142L 10 118Z"></path></g></g></g><g id="g-root-sy_1_Subtract_924ydpm7bpn-stroke" data-item-order="-299485" transform="translate(20, 206)"><g id="sy_1_Subtract_924ydpm7bpn-stroke" fill="none" stroke-linecap="round" stroke-linejoin="round" stroke-miterlimit="4" stroke="#1ac3fb" stroke-width="2"><g><path d="M 10 10L 565 10"></path></g></g></g><g id="g-root-sy_1_Subtract-start_924ydpm7bpo-stroke" data-item-order="-299483" transform="translate(14, 203)"><g id="sy_1_Subtract-start_924ydpm7bpo-stroke" fill="none" stroke-linecap="round" stroke-linejoin="round" stroke-miterlimit="4" stroke="#f4f4f4" stroke-width="2"><g><path d="M 13 16C 11.3443 16 10 14.6557 10 13C 10 11.3443 11.3443 10 13 10C 14.6557 10 16 11.3443 16 13C 16 14.6557 14.6557 16 13 16Z"></path></g></g></g><g id="g-root-tx_systemar_924ydpm7bpp-stroke" data-item-order="0" transform="translate(212, 38)"></g><g id="g-root-tx_glass_1qclgy5m7aq3-stroke" data-item-order="0" transform="translate(14, 170)"></g><g id="g-root-tx_visualiz_1qclgy5m7aq2-stroke" data-item-order="0" transform="translate(14, 218)"></g><g id="g-root-ic_lock_1upaln1mea6n-stroke" data-item-order="0" transform="translate(587, 211)"><g id="ic_lock_1upaln1mea6n-stroke" fill="none" stroke-linecap="round" stroke-linejoin="round" stroke-miterlimit="4" stroke="#2c2c2c" stroke-width="2"><g><path d="M 25.421959 36.621998L 13.249208 36.621998C 11.854735 36.620346 10.724999 35.216568 10.725 33.4855L 10.725 13.8865C 10.724999 12.15543 11.854735 10.751656 13.249208 10.75L 32.195873 10.75C 33.59082 10.750828 34.721294 12.154844 34.721294 13.8865L 34.721291 23.390499M 10.722584 16.8745L 34.721291 16.8745M 10.722584 29.887001L 25.421959 29.887001M 10.722584 23.390499L 34.721291 23.390499M 20.524584 16.8745L 20.524584 36.621998M 27.55225 16.8745L 27.55225 27.404499M 27.926834 36.327999C 27.926834 35.09613 28.731285 34.0975 29.723625 34.0975L 36.480625 34.0975C 37.472023 34.099155 38.275002 35.097298 38.275002 36.327999L 38.275002 43.019501C 38.275002 44.250202 37.472023 45.248344 36.480625 45.25L 29.723625 45.25C 28.731285 45.25 27.926834 44.251373 27.926834 43.019501ZM 33.102123 27.400002L 33.102123 27.400002C 31.15741 27.450024 29.613228 29.446838 29.652334 31.861L 29.652334 34.093002L 36.551918 34.093002L 36.551918 31.865499C 36.593056 29.449598 35.048286 27.45001 33.102123 27.4ZM 33.102123 38.1115C 32.571358 38.08456 32.080677 38.460789 31.862459 39.062012C 31.644241 39.663239 31.742294 40.368759 32.11018 40.84446C 32.478069 41.32016 33.041939 41.470535 33.534748 41.224373C 34.027565 40.978214 34.350384 40.384937 34.350334 39.725502C 34.364491 38.852013 33.805756 38.129539 33.102123 38.1115L 33.102123 38.1115"></path></g></g></g><g id="g-root-tx_studio_74f7xm7a4h-stroke" data-item-order="0" transform="translate(14, 290)"></g><g id="g-root-tx_configur_74f7xm7a4g-stroke" data-item-order="0" transform="translate(14, 338)"></g><g id="g-root-ic_stud_4g2pe5mebk4-stroke" data-item-order="0" transform="translate(587, 319)"><g id="ic_stud_4g2pe5mebk4-stroke" fill="none" stroke-linecap="round" stroke-linejoin="round" stroke-miterlimit="4" stroke="#2c2c2c" stroke-width="2"><g><path d="M 12.912084 37.18C 12.536734 36.910988 12.306196 36.413025 12.307917 35.875L 12.307917 20.125C 12.306196 19.586973 12.536734 19.089012 12.912084 18.82L 23.895834 10.96C 24.269693 10.692051 24.730307 10.692051 25.104168 10.96L 36.075832 18.82C 36.454967 19.09166 36.686096 19.596628 36.68 20.139999L 36.68 35.875C 36.681721 36.413025 36.451183 36.910988 36.075832 37.18L 25.104168 45.040001C 24.730307 45.307949 24.269693 45.307949 23.895834 45.040001ZM 24.5 28L 33.5625 21.505001L 24.5 15.01L 15.4375 21.505001L 15.4375 34.494999L 24.5 40.989998Z"></path></g></g></g><g id="g-root-tx_core_1usez2lm79xr-stroke" data-item-order="0" transform="translate(14, 410)"></g><g id="g-root-ic_chec_1lwrytpm7bic-stroke" data-item-order="0" transform="translate(587, 439)"><g id="ic_chec_1lwrytpm7bic-stroke" fill="none" stroke-linecap="round" stroke-linejoin="round" stroke-miterlimit="4" stroke="#2c2c2c" stroke-width="2"><g><path d="M 31.689585 20.800104L 17.189596 20.800104L 17.189596 44.800148L 31.689585 44.800148L 31.689585 20.800104ZM 34.106251 29.19985L 37.972916 29.19985M 34.106251 35.199852L 37.972916 35.199852M 34.106251 41.199852L 36.764584 41.199852C 37.489586 41.199852 37.972916 40.59985 37.972916 39.699852L 37.972916 24.699894C 37.972916 23.799896 37.489586 23.199894 36.764584 23.199894L 34.106251 23.199894M 17.793762 28.749849L 31.689585 28.749849M 17.793762 36.999851L 31.689585 36.999851M 14.772904 29.19985L 10.90625 29.19985M 14.772904 35.199852L 10.90625 35.199852M 14.772917 41.199852L 12.114583 41.199852C 11.389584 41.199852 10.90625 40.59985 10.90625 39.699852L 10.90625 24.699894C 10.90625 23.799896 11.389584 23.199894 12.114583 23.199894L 14.772917 23.199894M 10 10M 22.627083 12.699895L 24.439583 14.79988L 27.460417 11.19989"></path></g></g></g><g id="g-root-tx_coreengi_4mxxcdm79c6-stroke" data-item-order="0" transform="translate(14, 458)"></g></g></g><path id="w4mbsylc3g26" d="M65.283 12.757a.35.35 0 0 0 .584.157l5.203-5.141-6.183 3.523.396 1.461zm-2.216-11.7a.35.35 0 0 0-.522.305v3.111l3.276-1.868-2.754-1.548zm3.728 2.105l-4.25 2.421v2.445l6.391-3.644-2.141-1.222zm4.708 3.303a.35.35 0 0 0 0-.609l-1.592-.9-7.365 4.199v1.782a.35.35 0 0 0 .523.305l8.435-4.777z M44.542 2.513c0-.433.355-.783.792-.783s.792.35.792.783-.355.783-.792.783-.792-.35-.792-.783zm59.171 0c0-.433.355-.783.792-.783s.792.35.792.783-.355.783-.792.783-.792-.35-.792-.783zm-85.951 7.636h-1.27v-.487c-.276.201-.864.609-1.881.609-1.202 0-2.274-.794-2.137-2.078.118-1.106 1.153-1.584 1.848-1.727l2.17-.345c0-.539-.29-.956-1.064-1.006s-1.21.305-1.571 1.017l-1.124-.605c1.218-2.631 5.029-1.764 5.029.414v4.207zm-1.27-2.86c.006.396-.062 1.112-.819 1.59-.587.37-1.841.299-1.903-.395-.049-.555.461-.791.906-.898l1.816-.297zm72.662 2.86h-1.27v-.487c-.276.201-.864.609-1.881.609-1.202 0-2.274-.794-2.137-2.078.118-1.106 1.153-1.584 1.848-1.727l2.17-.345c0-.539-.29-.956-1.064-1.006s-1.21.305-1.571 1.017l-1.124-.605c1.218-2.631 5.029-1.764 5.029.414v4.207zm-1.27-2.86c.006.396-.062 1.112-.82 1.59-.587.37-1.841.299-1.903-.395-.049-.555.461-.791.906-.898l1.816-.297zM99.096 10.149H97.85v-8.45h1.246v4.895l2.68-2.559h1.738l-2.633 2.535 2.715 3.578h-1.556l-2.077-2.707-.867.844v1.863zm6.053-6.114h-1.255v6.113h1.255V4.035zm-59.2 0h-1.255v6.113h1.255V4.035zm5.584 6.113V1.697h1.255v2.695c.361-.346 1-.485 1.47-.485 1.452 0 2.477 1.082 2.457 2.448v3.792h-1.27v-3.68c0-.408-.214-1.339-1.315-1.339-.968 0-1.342.756-1.342 1.339v3.681h-1.255zm-4.76-4.894V4.039h.621a.45.45 0 0 0 .45-.45v-.855h1.251v1.305h1.309v1.215h-1.309v3.109c0 .293.105.664.648.664.365 0 .531-.035.736-.07v1.137s-.361.113-.857.113c-1.398 0-1.777-1.051-1.777-1.788V5.254h-1.071zM36.528 4.039h-1.394l2.191 6.106h1.125l1.234-3.918 1.238 3.918h1.129l2.188-6.106h-1.383l-1.359 3.93-1.256-3.93h-1.124l-1.242 3.957-1.348-3.957zM26.212 7.141c-.02 1.566 1.187 3.129 3.223 3.129 1.566 0 2.383-.918 2.734-1.719L31.172 8c-.315.399-.801 1.094-1.738 1.094-1.145 0-1.825-.781-1.891-1.52h4.625c.074-.284.148-.995-.03-1.559-.336-1.064-1.221-2.102-2.839-2.102s-3.088 1.152-3.088 3.227zm1.363-.75h3.348c-.055-.43-.566-1.301-1.623-1.301a1.79 1.79 0 0 0-1.725 1.301zm-8.758.75c.038 1.758 1.277 3.133 3.145 3.133 1.074 0 1.723-.477 1.961-.672v.547h1.242V1.703h-1.258v2.888c-.414-.36-1.062-.68-1.93-.68-1.91 0-3.198 1.473-3.16 3.23zm1.309-.08c0 1.119.723 1.978 1.836 1.978a1.88 1.88 0 0 0 1.94-1.904c0-1.371-1.011-1.99-1.972-1.99s-1.805.798-1.805 1.916zm76.683-.028C96.771 5.275 95.532 3.9 93.664 3.9c-1.074 0-1.723.477-1.961.672v-.547h-1.242v8.22h1.258V9.583c.414.36 1.063.68 1.93.68 1.91 0 3.198-1.473 3.16-3.23zm-1.309.08c0-1.119-.723-1.978-1.836-1.978a1.88 1.88 0 0 0-1.94 1.904c0 1.371 1.011 1.99 1.972 1.99S95.5 8.231 95.5 7.113zM106.441 10.173V4.036h1.254v.382c.361-.346 1-.485 1.47-.485 1.452 0 2.477 1.082 2.457 2.448v3.792h-1.27V6.492c0-.408-.214-1.339-1.315-1.339-.969 0-1.342.756-1.342 1.339v3.681h-1.254zm-30.383-.021V1.824h1.084l4.215 5.777V1.824h1.32v8.328h-1.094l-4.207-5.796v5.796h-1.319zM5.24 10.149H4V2.377h1.014l2.664 3.597 2.654-3.592h1.03v7.766h-1.256V4.762L7.678 8.068 5.24 4.742v5.407z" transform="translate(20, 566.0001220703125)" fill="#ababab88" stroke="none"></path></svg>