<?xml version="1.0" encoding="utf-8" standalone="yes"?>
<!DOCTYPE svg PUBLIC "-//W3C//DTD SVG 1.1//EN" "http://www.w3.org/Graphics/SVG/1.1/DTD/svg11.dtd">
<svg width="996" height="784" viewBox="0 0 996 784" style="fill:none;stroke:none;fill-rule:evenodd;clip-rule:evenodd;stroke-linecap:round;stroke-linejoin:round;stroke-miterlimit:1.5;" version="1.1" xmlns="http://www.w3.org/2000/svg" xmlns:xlink="http://www.w3.org/1999/xlink"><style class="text-font-style fontImports" data-font-family="Roboto">@import url(https://fonts.googleapis.com/css2?family=Roboto:wght@400;700&amp;amp;display=block);</style><g id="items" style="isolation: isolate"><g id="blend" style="mix-blend-mode: normal"><g id="g-root-sy_6_cu_Subtract_1hgbznf2ka1af-fill" data-item-order="-479462" transform="translate(74, 521.125)"><g id="sy_6_cu_Subtract_1hgbznf2ka1af-fill-merged" stroke="none" fill="#f366bb"><g><path d="M409.681 10.003C187.665 11.862 10 56.791 10 111.943C10 168.276 195.354 213.943 424 213.943C652.646 213.943 838 168.276 838 111.943C838 56.764 660.167 11.819 438.004 10C439.168 12.757 440.276 15.805 441.379 19.049C622.185 21.272 766 57.982 766 102.943C766 149.335 612.881 186.943 424 186.943C235.119 186.943 82 149.335 82 102.943C82 58.007 225.658 21.312 406.324 19.053C407.42 15.809 408.522 12.76 409.681 10.003"></path></g></g></g><g id="g-root-sy_6_cu_Subtract_1_1d0ihiz2ka22o-fill" data-item-order="-479460" transform="translate(74, 521.125)"><g id="sy_6_cu_Subtract_1_1d0ihiz2ka22o-fill-merged" stroke="none" fill="#f366bb"><g><path d="M409.681 10.003C187.665 11.862 10 56.791 10 111.943C10 168.276 195.354 213.943 424 213.943C652.646 213.943 838 168.276 838 111.943C838 56.764 660.167 11.819 438.004 10C439.168 12.757 440.276 15.805 441.379 19.049C622.185 21.272 766 57.982 766 102.943C766 149.335 612.881 186.943 424 186.943C235.119 186.943 82 149.335 82 102.943C82 58.007 225.658 21.312 406.324 19.053C407.42 15.809 408.522 12.76 409.681 10.003"></path></g></g></g><g id="g-root-sy_5_cu_Subtract_144vha32ka2vd-fill" data-item-order="-479456" transform="translate(146, 530.173828125)"><g id="sy_5_cu_Subtract_144vha32ka2vd-fill-merged" stroke="none" fill="#a6da37"><g><path d="M334.324 10.004C153.658 12.263 10 48.958 10 93.893C10 140.285 163.119 177.893 352 177.893C540.881 177.893 694 140.285 694 93.893C694 48.933 550.185 12.223 369.379 10C370.271 12.621 371.159 15.37 372.073 18.196C372.168 18.489 372.263 18.783 372.359 19.078C511.966 21.622 622 50.117 622 84.893C622 121.344 501.117 150.893 352 150.893C202.883 150.893 82 121.344 82 84.893C82 50.139 191.89 21.66 331.368 19.083C331.439 18.862 331.509 18.642 331.58 18.421C332.51 15.517 333.415 12.693 334.324 10.004"></path></g></g></g><g id="g-root-sy_4_cu_Subtract_144vha32ka2ve-fill" data-item-order="-479452" transform="translate(218, 539.251953125)"><g id="sy_4_cu_Subtract_144vha32ka2ve-fill-merged" stroke="none" fill="#f79438"><g><path d="M259.368 10.005C119.89 12.581 10 41.061 10 75.815C10 112.266 130.883 141.815 280 141.815C429.117 141.815 550 112.266 550 75.815C550 41.039 439.966 12.544 300.359 10C301.324 12.982 302.319 16.044 303.378 19.128C408.355 21.951 490 43.568 490 69.815C490 97.982 395.98 120.815 280 120.815C164.02 120.815 70 97.982 70 69.815C70 43.588 151.52 21.985 256.38 19.134C257.427 16.051 258.412 12.988 259.368 10.005"></path></g></g></g><g id="g-root-sy_3_cu_Subtract_zp1z5n2ka3nn-fill" data-item-order="-479448" transform="translate(278, 548.37890625)"><g id="sy_3_cu_Subtract_zp1z5n2ka3nn-fill-merged" stroke="none" fill="#1ac3fb"><g><path d="M196.38 10.007C91.52 12.857 10 34.46 10 60.688C10 88.854 104.02 111.688 220 111.688C335.98 111.688 430 88.854 430 60.688C430 34.44 348.355 12.824 243.378 10C244.316 12.732 245.303 15.482 246.362 18.208C323.294 21.278 382 37.561 382 57.188C382 79.003 309.47 96.688 220 96.688C130.53 96.688 58 79.003 58 57.188C58 37.578 116.602 21.307 193.434 18.216C194.478 15.49 195.453 12.74 196.38 10.007"></path></g></g></g><g id="g-root-sy_2_cu_Subtract_zp1z5n2ka3no-fill" data-item-order="-479444" transform="translate(326, 556.5859375)"><g id="sy_2_cu_Subtract_zp1z5n2ka3no-fill-merged" stroke="none" fill="#ffe711"><g><path d="M145.434 10.008C68.602 13.099 10 29.371 10 48.98C10 70.795 82.53 88.48 172 88.48C261.47 88.48 334 70.795 334 48.98C334 29.353 275.294 13.07 198.362 10C199.596 13.177 200.927 16.323 202.391 19.373C257.297 22.664 298 34.671 298 48.98C298 65.824 241.588 79.48 172 79.48C102.412 79.48 46 65.824 46 48.98C46 34.684 86.629 22.686 141.46 19.382C142.903 16.333 144.216 13.187 145.434 10.008"></path></g></g></g><g id="g-root-sy_1_cu_Subtract_qu1fzv2ka1al-fill" data-item-order="-479440" transform="translate(362, 565.958984375)"><g id="sy_1_cu_Subtract_qu1fzv2ka1al-fill-merged" stroke="none" fill="#43dd93"><g><path d="M105.46 10.009C50.629 13.313 10 25.312 10 39.607C10 56.452 66.412 70.107 136 70.107C205.588 70.107 262 56.452 262 39.607C262 25.299 221.298 13.292 166.391 10C167.542 12.398 168.775 14.737 170.107 16.985C209.668 20.287 238 29.17 238 39.611C238 52.866 192.333 63.611 135.999 63.611C79.666 63.611 33.999 52.866 33.999 39.611C33.999 29.179 62.287 20.301 101.799 16.993C103.111 14.746 104.326 12.407 105.46 10.009"></path></g></g></g><g id="g-root-sy_0_cu_me7xvf2ka22u-fill" data-item-order="-479436" transform="translate(386, 361.5618896484375)"><g id="sy_0_cu_me7xvf2ka22u-fill-merged" stroke="none" fill="#e8e8e8"><g><path d="M91.581 187.033C97.144 169.67 101.789 155.171 111.822 155.171C121.844 155.171 126.491 169.539 132.074 186.807C135.748 198.166 139.827 210.78 146.108 221.383C185.669 224.685 214.001 233.568 214.001 244.008C214.001 257.263 168.334 268.008 112 268.008C55.667 268.008 10 257.263 10 244.008C10 233.576 38.288 224.699 77.8 221.391C83.944 210.867 87.957 198.342 91.581 187.033"></path></g></g><g id="sy_0_cu_me7xvf2ka22u-fill-merged" stroke="none" fill="#e8e8e8"><g><path d="M82.001 40.008C81.996 56.58 95.429 70.016 112 70.016C128.572 70.016 142.005 56.58 142 40.008C142.005 23.436 128.572 10 112 10C95.429 10 81.996 23.436 82.001 40.008 M94 112.438C94 122.379 102.059 130.438 112 130.438C121.941 130.438 130 122.379 130 112.438C130 102.497 121.941 94.438 112 94.438C102.059 94.438 94 102.497 94 112.438"></path></g></g></g><g id="g-root-sy_-1_vector_me7xvf2ka22v-fill" data-item-order="-479431" transform="translate(698, 434)"></g><g id="g-root-sy_-1_vector_1_me7xvf2ka22w-fill" data-item-order="-479427" transform="translate(254, 434)"></g><g id="g-root-sy_-1_vector_2_hyefqz2ka2v5-fill" data-item-order="-479423" transform="translate(650, 290)"></g><g id="g-root-sy_-1_vector_3_hyefqz2ka2v6-fill" data-item-order="-479419" transform="translate(254, 290)"></g><g id="g-root-sy_-1_vector_4_hyefqz2ka2v7-fill" data-item-order="-479415" transform="translate(602, 146)"></g><g id="g-root-sy_-1_vector_5_hyefqz2ka2v8-fill" data-item-order="-479411" transform="translate(254, 146)"></g><g id="g-root-tx_predicti_zqxeez2ka2of-fill" data-item-order="0" transform="translate(794, 266)"><g id="tx_predicti_zqxeez2ka2of-fill-merged" stroke="none" fill="#f79438"><g><text style="font: bold 20px Roboto, sans-serif; white-space: pre;" font-weight="bold" font-size="20px" font-family="Roboto, sans-serif"><tspan x="12" y="33.5" dominant-baseline="ideographic">Predictive </tspan><tspan x="12" y="57.5" dominant-baseline="ideographic">Maintenance</tspan></text></g></g></g><g id="g-root-tx_streamli_1qd7y2j2ka2o8-fill" data-item-order="0" transform="translate(26, 326)"><g id="tx_streamli_1qd7y2j2ka2o8-fill-merged" stroke="none" fill="#f4f4f4"><g><text style="font: 15px Roboto, sans-serif; white-space: pre;" font-size="15px" font-family="Roboto, sans-serif"><tspan x="20.01" y="30.5" dominant-baseline="ideographic">Streamlines inventory </tspan><tspan x="46.94" y="48.5" dominant-baseline="ideographic">management and </tspan><tspan x="67.75" y="66.5" dominant-baseline="ideographic">reduces errors</tspan></text></g></g></g><g id="g-root-tx_monitors_1qd7y2j2ka2o9-fill" data-item-order="0" transform="translate(794, 326)"><g id="tx_monitors_1qd7y2j2ka2o9-fill-merged" stroke="none" fill="#f4f4f4"><g><text style="font: 15px Roboto, sans-serif; white-space: pre;" font-size="15px" font-family="Roboto, sans-serif"><tspan x="12" y="30.5" dominant-baseline="ideographic">Monitors equipment </tspan><tspan x="12" y="48.5" dominant-baseline="ideographic">health and prevents </tspan><tspan x="12" y="66.5" dominant-baseline="ideographic">failures</tspan></text></g></g></g><g id="g-root-ic_bolt_4hbtx72ka2a7-fill" data-item-order="0" transform="translate(734, 266)"></g><g id="g-root-tx_leanmanu_vb3waj2ka3go-fill" data-item-order="0" transform="translate(38, 410)"><g id="tx_leanmanu_vb3waj2ka3go-fill-merged" stroke="none" fill="#a6da37"><g><text style="font: bold 20px Roboto, sans-serif; white-space: pre;" font-weight="bold" font-size="20px" font-family="Roboto, sans-serif"><tspan x="108.46" y="33.5" dominant-baseline="ideographic">Lean </tspan><tspan x="19.86" y="57.5" dominant-baseline="ideographic">Manufacturing</tspan></text></g></g></g><g id="g-root-ic_2_qvwv972ka136-fill" data-item-order="0" transform="translate(194, 410)"></g><g id="g-root-ic_2_v7zp6j2jytc8-fill" data-item-order="0" transform="translate(734, 410)"></g><g id="g-root-tx_industry_vb3waj2ka3gp-fill" data-item-order="0" transform="translate(794, 410)"><g id="tx_industry_vb3waj2ka3gp-fill-merged" stroke="none" fill="#f366bb"><g><text style="font: bold 20px Roboto, sans-serif; white-space: pre;" font-weight="bold" font-size="20px" font-family="Roboto, sans-serif"><tspan x="12" y="33.5" dominant-baseline="ideographic">Industry 4.0 </tspan><tspan x="12" y="57.5" dominant-baseline="ideographic">Integration</tspan></text></g></g></g><g id="g-root-ic_1_zitbgb2ka3ut-fill" data-item-order="0" transform="translate(194, 266)"></g><g id="g-root-tx_automate_1ut1g6z2ka1vz-fill" data-item-order="0" transform="translate(794, 182)"><g id="tx_automate_1ut1g6z2ka1vz-fill-merged" stroke="none" fill="#f4f4f4"><g><text style="font: 15px Roboto, sans-serif; white-space: pre;" font-size="15px" font-family="Roboto, sans-serif"><tspan x="12" y="30.5" dominant-baseline="ideographic">Automates checks and </tspan><tspan x="12" y="48.5" dominant-baseline="ideographic">ensures product </tspan><tspan x="12" y="66.5" dominant-baseline="ideographic">traceability</tspan></text></g></g></g><g id="g-root-tx_eliminat_1lxefy32ka3gi-fill" data-item-order="0" transform="translate(26, 470)"><g id="tx_eliminat_1lxefy32ka3gi-fill-merged" stroke="none" fill="#f4f4f4"><g><text style="font: 15px Roboto, sans-serif; white-space: pre;" font-size="15px" font-family="Roboto, sans-serif"><tspan x="21.95" y="27.5" dominant-baseline="ideographic">Eliminates waste and </tspan><tspan x="13.53" y="45.5" dominant-baseline="ideographic">improves process flow</tspan></text></g></g></g><g id="g-root-tx_connects_1d2dwsb2ka13f-fill" data-item-order="0" transform="translate(794, 470)"><g id="tx_connects_1d2dwsb2ka13f-fill-merged" stroke="none" fill="#f4f4f4"><g><text style="font: 15px Roboto, sans-serif; white-space: pre;" font-size="15px" font-family="Roboto, sans-serif"><tspan x="12" y="30.5" dominant-baseline="ideographic">Connects RFID with IoT </tspan><tspan x="12" y="48.5" dominant-baseline="ideographic">and AI for smart </tspan><tspan x="12" y="66.5" dominant-baseline="ideographic">factories</tspan></text></g></g></g><g id="g-root-tx_enablesp_4nkegr2ka1ae-fill" data-item-order="0" transform="translate(14, 182)"><g id="tx_enablesp_4nkegr2ka1ae-fill-merged" stroke="none" fill="#f4f4f4"><g><text style="font: 15px Roboto, sans-serif; white-space: pre;" font-size="15px" font-family="Roboto, sans-serif"><tspan x="71.02" y="30.5" dominant-baseline="ideographic">Enables precise </tspan><tspan x="19.94" y="48.5" dominant-baseline="ideographic">monitoring of materials </tspan><tspan x="78.48" y="66.5" dominant-baseline="ideographic">and processes</tspan></text></g></g></g><g id="g-root-tx_qualityc_18mkenv2ka1vp-fill" data-item-order="0" transform="translate(794, 146)"><g id="tx_qualityc_18mkenv2ka1vp-fill-merged" stroke="none" fill="#ffe711"><g><text style="font: bold 20px Roboto, sans-serif; white-space: pre;" font-weight="bold" font-size="20px" font-family="Roboto, sans-serif"><tspan x="12" y="33.5" dominant-baseline="ideographic">Quality Control</tspan></text></g></g></g><g id="g-root-ic_sear_dcyxbv2jukuf-fill" data-item-order="0" transform="translate(734, 122)"></g><g id="g-root-ic_user_zk2csb2jt6o3-fill" data-item-order="0" transform="translate(194, 122)"></g><g id="g-root-tx_realtime_1d2dwsb2ka13g-fill" data-item-order="0" transform="translate(74, 122)"><g id="tx_realtime_1d2dwsb2ka13g-fill-merged" stroke="none" fill="#43dd93"><g><text style="font: bold 20px Roboto, sans-serif; white-space: pre;" font-weight="bold" font-size="20px" font-family="Roboto, sans-serif"><tspan x="22.68" y="33.5" dominant-baseline="ideographic">Real-Time </tspan><tspan x="37.54" y="57.5" dominant-baseline="ideographic">Tracking</tspan></text></g></g></g><g id="g-root-tx_rfidbene_92rfi32ka3nx-fill" data-item-order="0" transform="translate(308, 38)"><g id="tx_rfidbene_92rfi32ka3nx-fill-merged" stroke="none" fill="#f4f4f4"><g><text style="font: bold 25px Roboto, sans-serif; white-space: pre;" font-weight="bold" font-size="25px" font-family="Roboto, sans-serif"><tspan x="14.36" y="42.5" dominant-baseline="ideographic">RFID Benefits in Manufacturing</tspan></text></g></g></g><g id="g-root-tx_inventor_zqxeez2ka2oe-fill" data-item-order="0" transform="translate(62, 266)"><g id="tx_inventor_zqxeez2ka2oe-fill-merged" stroke="none" fill="#1ac3fb"><g><text style="font: bold 20px Roboto, sans-serif; white-space: pre;" font-weight="bold" font-size="20px" font-family="Roboto, sans-serif"><tspan x="43.55" y="33.5" dominant-baseline="ideographic">Inventory </tspan><tspan x="23.06" y="57.5" dominant-baseline="ideographic">Automation</tspan></text></g></g></g><g id="g-root-sy_6_cu_Subtract_1hgbznf2ka1af-stroke" data-item-order="-479462" transform="translate(74, 521.125)"><g id="sy_6_cu_Subtract_1hgbznf2ka1af-stroke" fill="none" stroke-linecap="round" stroke-linejoin="round" stroke-miterlimit="4" stroke="#2c2c2c" stroke-width="2"><g><path d="M 409.6809 10.0026C 187.6654 11.8618 10 56.7905 10 111.9427C 10 168.2758 195.3541 213.9427 424 213.9427C 652.6459 213.9427 838 168.2758 838 111.9427C 838 56.7644 660.1666 11.8194 438.0043 10C 439.1682 12.7567 440.2757 15.805 441.3792 19.0493C 622.1851 21.272 766 57.9823 766 102.9427C 766 149.3347 612.8813 186.9427 424 186.9427C 235.1186 186.9427 82 149.3347 82 102.9427C 82 58.0069 225.6575 21.3122 406.3239 19.053C 407.42 15.8085 408.5218 12.7598 409.6809 10.0026Z"></path></g></g></g><g id="g-root-sy_6_cu_Subtract_1_1d0ihiz2ka22o-stroke" data-item-order="-479460" transform="translate(74, 521.125)"><g id="sy_6_cu_Subtract_1_1d0ihiz2ka22o-stroke" fill="none" stroke-linecap="round" stroke-linejoin="round" stroke-miterlimit="4" stroke="#2c2c2c" stroke-width="2"><g><path d="M 409.6809 10.0026C 187.6654 11.8618 10 56.7905 10 111.9427C 10 168.2758 195.3541 213.9427 424 213.9427C 652.6459 213.9427 838 168.2758 838 111.9427C 838 56.7644 660.1666 11.8194 438.0043 10C 439.1682 12.7567 440.2757 15.805 441.3792 19.0493C 622.1851 21.272 766 57.9823 766 102.9427C 766 149.3347 612.8813 186.9427 424 186.9427C 235.1186 186.9427 82 149.3347 82 102.9427C 82 58.0069 225.6575 21.3122 406.3239 19.053C 407.42 15.8085 408.5218 12.7598 409.6809 10.0026Z"></path></g></g></g><g id="g-root-sy_5_cu_Subtract_144vha32ka2vd-stroke" data-item-order="-479456" transform="translate(146, 530.173828125)"><g id="sy_5_cu_Subtract_144vha32ka2vd-stroke" fill="none" stroke-linecap="round" stroke-linejoin="round" stroke-miterlimit="4" stroke="#2c2c2c" stroke-width="2"><g><path d="M 334.3239 10.0037C 153.6575 12.2629 10 48.9576 10 93.8934C 10 140.2853 163.1186 177.8934 352 177.8934C 540.8813 177.8934 694 140.2853 694 93.8934C 694 48.933 550.1851 12.2227 369.3792 10C 370.2707 12.6208 371.1595 15.3695 372.0735 18.1959C 372.1683 18.4892 372.2634 18.7833 372.3588 19.0782C 511.966 21.6223 622 50.1168 622 84.8934C 622 121.3442 501.1169 150.8934 352 150.8934C 202.8831 150.8934 82 121.3442 82 84.8934C 82 50.1395 191.8903 21.6595 331.3677 19.0832C 331.4386 18.8622 331.5093 18.6416 331.5798 18.4215C 332.5103 15.5173 333.4152 12.6932 334.3239 10.0037Z"></path></g></g></g><g id="g-root-sy_4_cu_Subtract_144vha32ka2ve-stroke" data-item-order="-479452" transform="translate(218, 539.251953125)"><g id="sy_4_cu_Subtract_144vha32ka2ve-stroke" fill="none" stroke-linecap="round" stroke-linejoin="round" stroke-miterlimit="4" stroke="#2c2c2c" stroke-width="2"><g><path d="M 259.3677 10.005C 119.8903 12.5813 10 41.0613 10 75.8152C 10 112.266 130.8831 141.8152 280 141.8152C 429.1169 141.8152 550 112.266 550 75.8152C 550 41.0386 439.966 12.5441 300.3588 10C 301.3236 12.9821 302.3193 16.0441 303.3777 19.1276C 408.3552 21.9514 490 43.5678 490 69.8152C 490 97.9817 395.9798 120.8152 280 120.8152C 164.0202 120.8152 70 97.9817 70 69.8152C 70 43.5879 151.5195 21.9846 256.3805 19.1342C 257.4265 16.0505 258.4117 12.988 259.3677 10.005Z"></path></g></g></g><g id="g-root-sy_3_cu_Subtract_zp1z5n2ka3nn-stroke" data-item-order="-479448" transform="translate(278, 548.37890625)"><g id="sy_3_cu_Subtract_zp1z5n2ka3nn-stroke" fill="none" stroke-linecap="round" stroke-linejoin="round" stroke-miterlimit="4" stroke="#2c2c2c" stroke-width="2"><g><path d="M 196.3805 10.0065C 91.5195 12.857 10 34.4603 10 60.6875C 10 88.8541 104.0202 111.6875 220 111.6875C 335.9798 111.6875 430 88.8541 430 60.6875C 430 34.4401 348.3552 12.8238 243.3777 10C 244.3157 12.7324 245.3029 15.4819 246.3617 18.2079C 323.2938 21.2777 382 37.561 382 57.1875C 382 79.0028 309.4701 96.6875 220 96.6875C 130.5299 96.6875 58 79.0028 58 57.1875C 58 37.5784 116.6021 21.3066 193.4337 18.2161C 194.4783 15.49 195.4533 12.7399 196.3805 10.0065Z"></path></g></g></g><g id="g-root-sy_2_cu_Subtract_zp1z5n2ka3no-stroke" data-item-order="-479444" transform="translate(326, 556.5859375)"><g id="sy_2_cu_Subtract_zp1z5n2ka3no-stroke" fill="none" stroke-linecap="round" stroke-linejoin="round" stroke-miterlimit="4" stroke="#2c2c2c" stroke-width="2"><g><path d="M 145.4337 10.008201C 68.6021 13.0987 10 29.370501 10 48.9796C 10 70.794901 82.5299 88.4796 172 88.4796C 261.4701 88.4796 334 70.794901 334 48.9796C 334 29.3531 275.2938 13.069801 198.3617 10.000001C 199.5958 13.1774 200.9272 16.323001 202.391 19.3727C 257.2975 22.6643 298 34.671401 298 48.9796C 298 65.824301 241.5879 79.4796 172 79.4796C 102.4121 79.4796 46 65.824301 46 48.9796C 46 34.6843 86.6291 22.686 141.4603 19.3817C 142.9028 16.332601 144.2157 13.186601 145.4337 10.008201Z"></path></g></g></g><g id="g-root-sy_1_cu_Subtract_qu1fzv2ka1al-stroke" data-item-order="-479440" transform="translate(362, 565.958984375)"><g id="sy_1_cu_Subtract_qu1fzv2ka1al-stroke" fill="none" stroke-linecap="round" stroke-linejoin="round" stroke-miterlimit="4" stroke="#2c2c2c" stroke-width="2"><g><path d="M 105.4603 10.0089C 50.6291 13.3132 10 25.3115 10 39.6069C 10 56.4516 66.4121 70.1069 136 70.1069C 205.5879 70.1069 262 56.4516 262 39.6069C 262 25.2986 221.2975 13.2915 166.391 10C 167.5421 12.3981 168.7751 14.737 170.1072 16.9854C 209.6677 20.2872 237.9999 29.1705 237.9999 39.6108C 237.9999 52.8656 192.3327 63.6108 135.9995 63.6108C 79.6662 63.6108 33.999 52.8656 33.999 39.6108C 33.999 29.1787 62.2868 20.3012 101.7986 16.9932C 103.1108 14.7459 104.3257 12.4074 105.4603 10.0089Z"></path></g></g></g><g id="g-root-sy_0_cu_me7xvf2ka22u-stroke" data-item-order="-479436" transform="translate(386, 361.5618896484375)"><g id="sy_0_cu_me7xvf2ka22u-stroke" fill="none" stroke-linecap="round" stroke-linejoin="round" stroke-miterlimit="4" stroke="#2c2c2c" stroke-width="2"><g><path d="M 91.5808 187.032563C 97.1439 169.669663 101.7895 155.170563 111.8222 155.170563C 121.8442 155.170563 126.4906 169.539263 132.0744 186.806963C 135.7476 198.166163 139.8265 210.779863 146.1082 221.383063C 185.6687 224.684863 214.0009 233.568163 214.0009 244.008463C 214.0009 257.263263 168.3337 268.008463 112.0004 268.008463C 55.6672 268.008463 10 257.263263 10 244.008463C 10 233.576363 38.2878 224.698863 77.7996 221.390863C 83.9442 210.866763 87.9571 198.342163 91.5808 187.032563ZM 146.108161 221.383454C 152.445561 231.976454 161.184161 240.806254 173.792561 244.009054M 77.799661 221.391254C 71.497761 232.100354 62.828761 240.931454 50.209961 244.009054"></path></g></g><g id="sy_0_cu_me7xvf2ka22u-stroke" fill="none" stroke-linecap="round" stroke-linejoin="round" stroke-miterlimit="4" stroke="#2c2c2c" stroke-width="2"><g><path d="M 82.000702 40.008007C 81.996081 56.579619 95.428732 70.016017 112.000346 70.016017C 128.57196 70.016017 142.004611 56.579619 141.99999 40.008006C 142.004611 23.436393 128.57196 9.999995 112.000346 9.999995C 95.428732 9.999995 81.996081 23.436393 82.000702 40.008006M 94 112.437939C 94.000001 122.379004 102.058826 130.437829 111.99989 130.437829C 121.940954 130.437829 129.999779 122.379004 129.999779 112.437939C 129.999779 102.496875 121.940954 94.43805 111.99989 94.43805C 102.058826 94.43805 94.000001 102.496875 94.000001 112.437939"></path></g></g></g><g id="g-root-sy_-1_vector_me7xvf2ka22v-stroke" data-item-order="-479431" transform="translate(698, 434)"><g id="sy_-1_vector_me7xvf2ka22v-stroke" fill="none" stroke-linecap="round" stroke-linejoin="round" stroke-miterlimit="4" stroke="#f4f4f4" stroke-width="2"><style>.fillAsStrokeColor-mk-1cz9su333semi { fill:#f4f4f4; }</style><g><path d="M 34 10L 22 10C 15.3726 10 10 15.4062 10 22.075L 10 111"></path><path d="M 7 111C 7 112.656857 8.343146 114.000003 10 114.000003C 11.656854 114.000003 13 112.656857 13 111.000003C 13 109.343149 11.656854 108.000003 10 108.000003C 8.343146 108.000003 7 109.343149 7 111.000003Z" stroke-dasharray="none" class="fillAsStrokeColor-mk-1cz9su333semi" fill="#f4f4f4"></path></g></g></g><g id="g-root-sy_-1_vector_1_me7xvf2ka22w-stroke" data-item-order="-479427" transform="translate(254, 434)"><g id="sy_-1_vector_1_me7xvf2ka22w-stroke" fill="none" stroke-linecap="round" stroke-linejoin="round" stroke-miterlimit="4" stroke="#f4f4f4" stroke-width="2"><style>.fillAsStrokeColor-mk-18jgapn33sfer { fill:#f4f4f4; }</style><g><path d="M 10 10L 22 10C 28.6274 10 34 15.4351 34 22.1395L 34 124"></path><path d="M 31 124C 31.000001 125.656858 32.343146 127.000003 34.000001 127.000003C 35.656855 127.000003 37.000001 125.656858 37.000001 124.000003C 37.000001 122.343149 35.656855 121.000003 34.000001 121.000003C 32.343146 121.000003 31.000001 122.343149 31.000001 124.000003Z" stroke-dasharray="none" class="fillAsStrokeColor-mk-18jgapn33sfer" fill="#f4f4f4"></path></g></g></g><g id="g-root-sy_-1_vector_2_hyefqz2ka2v5-stroke" data-item-order="-479423" transform="translate(650, 290)"><g id="sy_-1_vector_2_hyefqz2ka2v5-stroke" fill="none" stroke-linecap="round" stroke-linejoin="round" stroke-miterlimit="4" stroke="#f4f4f4" stroke-width="2"><style>.fillAsStrokeColor-mk-zofrjv33sd1o { fill:#f4f4f4; }</style><g><path d="M 82 10L 34 10C 20.7452 10 10 20.7786 10 34.0748L 10 272"></path><path d="M 7 272C 7 273.656862 8.343146 275.000008 10 275.000008C 11.656854 275.000008 13 273.656862 13 272.000008C 13 270.343154 11.656854 269.000008 10 269.000008C 8.343146 269.000008 7 270.343154 7 272.000008Z" stroke-dasharray="none" class="fillAsStrokeColor-mk-zofrjv33sd1o" fill="#f4f4f4"></path></g></g></g><g id="g-root-sy_-1_vector_3_hyefqz2ka2v6-stroke" data-item-order="-479419" transform="translate(254, 290)"><g id="sy_-1_vector_3_hyefqz2ka2v6-stroke" fill="none" stroke-linecap="round" stroke-linejoin="round" stroke-miterlimit="4" stroke="#f4f4f4" stroke-width="2"><style>.fillAsStrokeColor-mk-zofrjv33sd1p { fill:#f4f4f4; }</style><g><path d="M 10 10L 58 10C 71.2548 10 82 20.8093 82 34.1433L 82 287"></path><path d="M 79 287C 79.000002 288.656863 80.343148 290.000008 82.000002 290.000008C 83.656856 290.000008 85.000002 288.656863 85.000002 287.000008C 85.000002 285.343154 83.656856 284.000008 82.000002 284.000008C 80.343148 284.000008 79.000002 285.343154 79.000002 287.000008Z" stroke-dasharray="none" class="fillAsStrokeColor-mk-zofrjv33sd1p" fill="#f4f4f4"></path></g></g></g><g id="g-root-sy_-1_vector_4_hyefqz2ka2v7-stroke" data-item-order="-479415" transform="translate(602, 146)"><g id="sy_-1_vector_4_hyefqz2ka2v7-stroke" fill="none" stroke-linecap="round" stroke-linejoin="round" stroke-miterlimit="4" stroke="#f4f4f4" stroke-width="2"><style>.fillAsStrokeColor-mk-v8m9ff33sdty { fill:#f4f4f4; }</style><g><path d="M 130 10L 46.3025 10C 26.2532 10 10 26.1178 10 46L 10 432"></path><path d="M 7 432C 7 433.656867 8.343146 435.000013 10 435.000013C 11.656854 435.000013 13 433.656867 13 432.000013C 13 430.343158 11.656854 429.000013 10 429.000013C 8.343146 429.000013 7 430.343158 7 432.000013Z" stroke-dasharray="none" class="fillAsStrokeColor-mk-v8m9ff33sdty" fill="#f4f4f4"></path></g></g></g><g id="g-root-sy_-1_vector_5_hyefqz2ka2v8-stroke" data-item-order="-479411" transform="translate(254, 146)"><g id="sy_-1_vector_5_hyefqz2ka2v8-stroke" fill="none" stroke-linecap="round" stroke-linejoin="round" stroke-miterlimit="4" stroke="#f4f4f4" stroke-width="2"><style>.fillAsStrokeColor-mk-v8m9ff33sdtz { fill:#f4f4f4; }</style><g><path d="M 10 10L 94 10C 113.8822 10 130 26.1177 130 46L 130 447"></path><path d="M 127 447C 127.000004 448.656867 128.343149 450.000013 130.000004 450.000013C 131.656858 450.000013 133.000004 448.656867 133.000004 447.000013C 133.000004 445.343159 131.656858 444.000013 130.000004 444.000013C 128.343149 444.000013 127.000004 445.343159 127.000004 447.000013Z" stroke-dasharray="none" class="fillAsStrokeColor-mk-v8m9ff33sdtz" fill="#f4f4f4"></path></g></g></g><g id="g-root-tx_predicti_zqxeez2ka2of-stroke" data-item-order="0" transform="translate(794, 266)"></g><g id="g-root-tx_streamli_1qd7y2j2ka2o8-stroke" data-item-order="0" transform="translate(26, 326)"></g><g id="g-root-tx_monitors_1qd7y2j2ka2o9-stroke" data-item-order="0" transform="translate(794, 326)"></g><g id="g-root-ic_bolt_4hbtx72ka2a7-stroke" data-item-order="0" transform="translate(734, 266)"><g id="ic_bolt_4hbtx72ka2a7-stroke" fill="none" stroke-linecap="round" stroke-linejoin="round" stroke-miterlimit="4" stroke="#f4f4f4" stroke-width="2"><g><path d="M 14 20L 54 20C 54 20 57 20 57 23L 57 51C 57 51 57 54 54 54L 14 54C 14 54 11 54 11 51L 11 23C 11 23 11 20 14 20M 25 20L 25 15C 25 14.447716 24.552284 14 24 14L 18 14C 17.447716 14 17 14.447716 17 15L 17 20M 51 20L 51 15C 51 14.447716 50.552284 14 50 14L 44 14C 43.447716 14 43 14.447716 43 15L 43 20M 32.779999 27L 41.858002 27L 34.408001 35L 42.734001 35C 43.284 35 43.388 35.285999 42.964001 35.636002L 28 48L 30.452 39L 24.493999 39C 23.672001 39 23.424 38.478001 23.944 37.841999Z"></path></g></g></g><g id="g-root-tx_leanmanu_vb3waj2ka3go-stroke" data-item-order="0" transform="translate(38, 410)"></g><g id="g-root-ic_2_qvwv972ka136-stroke" data-item-order="0" transform="translate(194, 410)"><g id="ic_2_qvwv972ka136-stroke" fill="none" stroke-linecap="round" stroke-linejoin="round" stroke-miterlimit="4" stroke="#f4f4f4" stroke-width="2"><g><path d="M 11.5 51.537998C 11.5 54.299423 13.738576 56.538002 16.5 56.538002L 51.5 56.537998C 54.261425 56.538002 56.5 54.299423 56.5 51.538002C 56.5 48.776577 54.261425 46.538002 51.5 46.538002L 16.5 46.537998C 13.738576 46.538002 11.5 48.776577 11.5 51.538002ZM 49.679996 46.540001L 38.171997 46.540001L 38.171997 36.304001L 49.679996 36.304001ZM 48 51.537998C 48 52.090286 48.447716 52.537998 49 52.537998C 49.552284 52.537998 50 52.090286 50 51.537998C 50 50.985714 49.552284 50.537998 49 50.537998C 48.447716 50.537998 48 50.985714 48 51.537998M 38 51.537998C 38 52.090286 38.447716 52.537998 39 52.537998C 39.552284 52.537998 40 52.090286 40 51.537998C 40 50.985714 39.552284 50.537998 39 50.537998C 38.447716 50.537998 38 50.985714 38 51.537998M 27.916 51.537998C 27.916 52.090286 28.363716 52.537998 28.916 52.537998C 29.468285 52.537998 29.916 52.090286 29.916 51.537998C 29.916 50.985714 29.468285 50.537998 28.916 50.537998C 28.363716 50.537998 27.916 50.985714 27.916 51.537998M 17.916 51.537998C 17.916 52.090286 18.363716 52.537998 18.916 52.537998C 19.468285 52.537998 19.916 52.090286 19.916 51.537998C 19.916 50.985714 19.468285 50.537998 18.916 50.537998C 18.363716 50.537998 17.916 50.985714 17.916 51.537998M 43.925999 40.388L 43.925999 36.302002M 28.916 46.540001L 17.408001 46.540001L 17.408001 36.304001L 28.916 36.304001ZM 23.161999 40.388L 23.161999 36.302002M 13.456 21.439999L 23.436001 11.462L 23.436001 17.948L 51.952 17.948L 51.952 25.262001L 23.436001 25.262001L 23.436001 31.42L 13.456 21.439999Z"></path></g></g></g><g id="g-root-ic_2_v7zp6j2jytc8-stroke" data-item-order="0" transform="translate(734, 410)"><g id="ic_2_v7zp6j2jytc8-stroke" fill="none" stroke-linecap="round" stroke-linejoin="round" stroke-miterlimit="4" stroke="#f4f4f4" stroke-width="2"><g><path d="M 32 45.5C 32 46.742641 33.007359 47.75 34.25 47.75C 35.492641 47.75 36.5 46.742641 36.5 45.5C 36.5 44.257359 35.492641 43.25 34.25 43.25C 33.007359 43.25 32 44.257359 32 45.5M 36.162003 36.799999L 36.823997 38.978001C 37.050385 39.728683 37.819817 40.175476 38.584 40L 40.793999 39.487999C 41.656693 39.281734 42.552181 39.668327 42.993706 40.437641C 43.435226 41.206955 43.317291 42.175171 42.703999 42.816002L 41.16 44.481998C 40.625893 45.058659 40.625893 45.949341 41.16 46.526001L 42.703999 48.192001C 43.317291 48.832829 43.435226 49.801044 42.993706 50.570358C 42.552181 51.339672 41.656693 51.726265 40.793999 51.52L 38.584 51C 37.819817 50.824528 37.050385 51.27132 36.824001 52.022003L 36.162003 54.200001C 35.904259 55.039909 35.128563 55.613266 34.25 55.613266C 33.371437 55.613266 32.595741 55.039909 32.337997 54.200001L 31.676001 52.021999C 31.449615 51.27132 30.680187 50.824528 29.916 51.000004L 27.705999 51.512001C 26.845705 51.712986 25.955456 51.32571 25.515995 50.559307C 25.076532 49.7929 25.191982 48.828953 25.799999 48.188L 27.344 46.521999C 27.878109 45.945339 27.878109 45.054657 27.344 44.478001L 25.799999 42.812C 25.18671 42.171173 25.068773 41.202957 25.510296 40.43364C 25.95182 39.66433 26.847307 39.277733 27.709999 39.484001L 29.916 40C 30.680187 40.175476 31.449615 39.728683 31.676001 38.978001L 32.337997 36.799999C 32.595741 35.960091 33.371437 35.386734 34.25 35.386734C 35.128563 35.386734 35.904259 35.960091 36.162003 36.799999ZM 45.094002 28.370001L 46.5 11.5L 52.5 11.5L 54.5 35.5M 47 56.5L 56.5 56.5L 56.5 37.5C 56.5 36.395432 55.604568 35.5 54.5 35.5L 45 35.5L 35.176003 28.356001C 34.474846 27.846296 33.525154 27.846296 32.823997 28.356001L 23 35.5L 13.5 35.5C 12.395431 35.5 11.5 36.395432 11.5 37.5L 11.5 56.5L 21 56.5M 45.458 24L 53.542 24L 53.042 18L 45.958 18L 45.458 24ZM 22.906 28.370001L 21.5 11.5L 15.5 11.5L 13.5 35.5M 22.542 24L 14.458 24L 14.958 18L 22.042 18L 22.542 24Z"></path></g></g></g><g id="g-root-tx_industry_vb3waj2ka3gp-stroke" data-item-order="0" transform="translate(794, 410)"></g><g id="g-root-ic_1_zitbgb2ka3ut-stroke" data-item-order="0" transform="translate(194, 266)"><g id="ic_1_zitbgb2ka3ut-stroke" fill="none" stroke-linecap="round" stroke-linejoin="round" stroke-miterlimit="4" stroke="#f4f4f4" stroke-width="2"><g><path d="M 18 53.75C 18 55.406857 19.343147 56.75 21 56.75C 22.656855 56.75 24 55.406857 24 53.75C 24 52.093147 22.656855 50.75 21 50.75C 19.343147 50.75 18 52.093147 18 53.75ZM 46 53.75C 46 55.406857 47.343147 56.75 49 56.75C 50.656857 56.75 52 55.406857 52 53.75C 52 52.093147 50.656857 50.75 49 50.75C 47.343147 50.75 46 52.093147 46 53.75ZM 18.438 45.433998C 18.336369 45.73914 18.387703 46.074539 18.575951 46.335312C 18.764198 46.596085 19.06638 46.750401 19.388 46.75L 50 46.75C 51.104568 46.75 52 45.854568 52 44.75L 52 18.75C 52 17.645432 51.104568 16.75 50 16.75L 28 16.75ZM 28 16.75L 28.370001 15.268C 28.733152 13.800623 28.031355 12.277431 26.68 11.6L 26.68 11.6C 25.641628 11.080617 24.404659 11.156926 23.438 11.8L 22 12.75M 29 34.75L 40 34.75L 40 34.75L 40 46.75L 40 46.75L 28 46.75L 28 46.75L 28 35.75C 28 35.197716 28.447716 34.75 29 34.75ZM 40 32.75L 47 32.75C 47.552284 32.75 48 33.197716 48 33.75L 48 46.75L 48 46.75L 40 46.75L 40 46.75L 40 32.75L 40 32.75ZM 33 26.75L 39 26.75C 39.552284 26.75 40 27.197716 40 27.75L 40 34.75L 40 34.75L 32 34.75L 32 34.75L 32 27.75C 32 27.197716 32.447716 26.75 33 26.75ZM 35 42.75L 37 42.75M 45 42.75L 48 42.75M 19.334 42.75L 16 42.75M 22 34.75L 18 34.75M 24.666 26.75L 21 26.75M 27.334 18.75L 24 18.75"></path></g></g></g><g id="g-root-tx_automate_1ut1g6z2ka1vz-stroke" data-item-order="0" transform="translate(794, 182)"></g><g id="g-root-tx_eliminat_1lxefy32ka3gi-stroke" data-item-order="0" transform="translate(26, 470)"></g><g id="g-root-tx_connects_1d2dwsb2ka13f-stroke" data-item-order="0" transform="translate(794, 470)"></g><g id="g-root-tx_enablesp_4nkegr2ka1ae-stroke" data-item-order="0" transform="translate(14, 182)"></g><g id="g-root-tx_qualityc_18mkenv2ka1vp-stroke" data-item-order="0" transform="translate(794, 146)"></g><g id="g-root-ic_sear_dcyxbv2jukuf-stroke" data-item-order="0" transform="translate(734, 122)"><g id="ic_sear_dcyxbv2jukuf-stroke" fill="none" stroke-linecap="round" stroke-linejoin="round" stroke-miterlimit="4" stroke="#f4f4f4" stroke-width="2"><g><path d="M 35 44.057999C 35 49.060593 39.055405 53.115997 44.057999 53.115997C 49.060593 53.115997 53.115997 49.060593 53.115997 44.057999C 53.115997 39.055405 49.060593 35 44.057999 35C 39.055405 35 35 39.055405 35 44.057999ZM 57 57L 50.504002 50.504002M 27 41L 13 41C 11.895431 41 11 40.104568 11 39L 11 19.827999C 11.000113 19.297611 11.210901 18.788986 11.586 18.414L 18.414 11.586C 18.788986 11.210901 19.297611 11.000113 19.827999 11L 30.172001 11C 30.702389 11.000113 31.211014 11.210901 31.586 11.586L 38.414001 18.414C 38.789101 18.788986 38.999886 19.297611 39 19.827999L 39 27M 38.82 19L 11.18 19M 25 11L 25 19"></path></g></g></g><g id="g-root-ic_user_zk2csb2jt6o3-stroke" data-item-order="0" transform="translate(194, 122)"><g id="ic_user_zk2csb2jt6o3-stroke" fill="none" stroke-linecap="round" stroke-linejoin="round" stroke-miterlimit="4" stroke="#f4f4f4" stroke-width="2"><g><path d="M 34 11C 38.328384 10.993644 42.568836 12.221655 46.223999 14.54C 55.723999 20.562 56.424 33 48.854 42.094002C 44.368031 47.50565 39.395939 52.495148 34 57C 28.604061 52.495148 23.631969 47.50565 19.146 42.094002C 11.578 33 12.276 20.562 21.776001 14.54C 25.431162 12.221655 29.671616 10.993644 34 11ZM 42.776001 40C 41.844398 35.902817 38.201759 32.995453 34 32.995453C 29.798241 32.995453 26.1556 35.902817 25.223999 40M 28 25.004C 28 28.317709 30.686293 31.004 34 31.004C 37.313709 31.004 40 28.317709 40 25.004002C 40 21.690292 37.313709 19.004002 34 19.004002C 30.686293 19.004002 28 21.690292 28 25.004002Z"></path></g></g></g><g id="g-root-tx_realtime_1d2dwsb2ka13g-stroke" data-item-order="0" transform="translate(74, 122)"></g><g id="g-root-tx_rfidbene_92rfi32ka3nx-stroke" data-item-order="0" transform="translate(308, 38)"></g><g id="g-root-tx_inventor_zqxeez2ka2oe-stroke" data-item-order="0" transform="translate(62, 266)"></g></g></g><path id="w8z08cb3ebmki" d="M65.283 12.757a.35.35 0 0 0 .584.157l5.203-5.141-6.183 3.523.396 1.461zm-2.216-11.7a.35.35 0 0 0-.522.305v3.111l3.276-1.868-2.754-1.548zm3.728 2.105l-4.25 2.421v2.445l6.391-3.644-2.141-1.222zm4.708 3.303a.35.35 0 0 0 0-.609l-1.592-.9-7.365 4.199v1.782a.35.35 0 0 0 .523.305l8.435-4.777z M44.542 2.513c0-.433.355-.783.792-.783s.792.35.792.783-.355.783-.792.783-.792-.35-.792-.783zm59.171 0c0-.433.355-.783.792-.783s.792.35.792.783-.355.783-.792.783-.792-.35-.792-.783zm-85.951 7.636h-1.27v-.487c-.276.201-.864.609-1.881.609-1.202 0-2.274-.794-2.137-2.078.118-1.106 1.153-1.584 1.848-1.727l2.17-.345c0-.539-.29-.956-1.064-1.006s-1.21.305-1.571 1.017l-1.124-.605c1.218-2.631 5.029-1.764 5.029.414v4.207zm-1.27-2.86c.006.396-.062 1.112-.819 1.59-.587.37-1.841.299-1.903-.395-.049-.555.461-.791.906-.898l1.816-.297zm72.662 2.86h-1.27v-.487c-.276.201-.864.609-1.881.609-1.202 0-2.274-.794-2.137-2.078.118-1.106 1.153-1.584 1.848-1.727l2.17-.345c0-.539-.29-.956-1.064-1.006s-1.21.305-1.571 1.017l-1.124-.605c1.218-2.631 5.029-1.764 5.029.414v4.207zm-1.27-2.86c.006.396-.062 1.112-.82 1.59-.587.37-1.841.299-1.903-.395-.049-.555.461-.791.906-.898l1.816-.297zM99.096 10.149H97.85v-8.45h1.246v4.895l2.68-2.559h1.738l-2.633 2.535 2.715 3.578h-1.556l-2.077-2.707-.867.844v1.863zm6.053-6.114h-1.255v6.113h1.255V4.035zm-59.2 0h-1.255v6.113h1.255V4.035zm5.584 6.113V1.697h1.255v2.695c.361-.346 1-.485 1.47-.485 1.452 0 2.477 1.082 2.457 2.448v3.792h-1.27v-3.68c0-.408-.214-1.339-1.315-1.339-.968 0-1.342.756-1.342 1.339v3.681h-1.255zm-4.76-4.894V4.039h.621a.45.45 0 0 0 .45-.45v-.855h1.251v1.305h1.309v1.215h-1.309v3.109c0 .293.105.664.648.664.365 0 .531-.035.736-.07v1.137s-.361.113-.857.113c-1.398 0-1.777-1.051-1.777-1.788V5.254h-1.071zM36.528 4.039h-1.394l2.191 6.106h1.125l1.234-3.918 1.238 3.918h1.129l2.188-6.106h-1.383l-1.359 3.93-1.256-3.93h-1.124l-1.242 3.957-1.348-3.957zM26.212 7.141c-.02 1.566 1.187 3.129 3.223 3.129 1.566 0 2.383-.918 2.734-1.719L31.172 8c-.315.399-.801 1.094-1.738 1.094-1.145 0-1.825-.781-1.891-1.52h4.625c.074-.284.148-.995-.03-1.559-.336-1.064-1.221-2.102-2.839-2.102s-3.088 1.152-3.088 3.227zm1.363-.75h3.348c-.055-.43-.566-1.301-1.623-1.301a1.79 1.79 0 0 0-1.725 1.301zm-8.758.75c.038 1.758 1.277 3.133 3.145 3.133 1.074 0 1.723-.477 1.961-.672v.547h1.242V1.703h-1.258v2.888c-.414-.36-1.062-.68-1.93-.68-1.91 0-3.198 1.473-3.16 3.23zm1.309-.08c0 1.119.723 1.978 1.836 1.978a1.88 1.88 0 0 0 1.94-1.904c0-1.371-1.011-1.99-1.972-1.99s-1.805.798-1.805 1.916zm76.683-.028C96.771 5.275 95.532 3.9 93.664 3.9c-1.074 0-1.723.477-1.961.672v-.547h-1.242v8.22h1.258V9.583c.414.36 1.063.68 1.93.68 1.91 0 3.198-1.473 3.16-3.23zm-1.309.08c0-1.119-.723-1.978-1.836-1.978a1.88 1.88 0 0 0-1.94 1.904c0 1.371 1.011 1.99 1.972 1.99S95.5 8.231 95.5 7.113zM106.441 10.173V4.036h1.254v.382c.361-.346 1-.485 1.47-.485 1.452 0 2.477 1.082 2.457 2.448v3.792h-1.27V6.492c0-.408-.214-1.339-1.315-1.339-.969 0-1.342.756-1.342 1.339v3.681h-1.254zm-30.383-.021V1.824h1.084l4.215 5.777V1.824h1.32v8.328h-1.094l-4.207-5.796v5.796h-1.319zM5.24 10.149H4V2.377h1.014l2.664 3.597 2.654-3.592h1.03v7.766h-1.256V4.762L7.678 8.068 5.24 4.742v5.407z" transform="translate(863, 752.067626953125)" fill="#ababab88" stroke="none"></path></svg>